STARTFONT 2.1
FONT -Monotype-Bookman Old Style-Regular-I-Normal--12-120-75-75-P-67-iso8859-2
SIZE 12 75 75
FONTBOUNDINGBOX 19 15 -4 -3

STARTPROPERTIES 24
FOUNDRY "Monotype"
FAMILY_NAME "Bookman Old Style"
WEIGHT_NAME "Regular"
SLANT "I"
SETWIDTH_NAME "Normal"
ADD_STYLE_NAME ""
PIXEL_SIZE 12
POINT_SIZE 120
RESOLUTION_X 75
RESOLUTION_Y 75
SPACING "P"
AVERAGE_WIDTH 67
CHARSET_REGISTRY "iso8859"
CHARSET_ENCODING "2"
FACE_NAME "Bookman Old Style Italic ISO Latin2"
_DEC_DEVICE_FONTNAMES "PS=bookmanoldstyle-it-lat2"
COPYRIGHT "Copyright (c) 1994 Monotype Typography Ltd."
CAP_HEIGHT 10
X_HEIGHT 7
WEIGHT 10
QUAD_WIDTH 7
DEFAULT_CHAR 160
FONT_DESCENT 3
FONT_ASCENT 12
ENDPROPERTIES

CHARS 191

STARTCHAR space
ENCODING 32
SWIDTH 300 0
DWIDTH 4 0
BBX 0 0 0 0
BITMAP
ENDCHAR

STARTCHAR exclam
ENCODING 33
SWIDTH 320 0
DWIDTH 4 0
BBX 2 9 1 0
BITMAP
40
40
40
80
80
80
00
80
80
ENDCHAR

STARTCHAR quotedbl
ENCODING 34
SWIDTH 360 0
DWIDTH 5 0
BBX 5 3 0 6
BITMAP
28
50
A0
ENDCHAR

STARTCHAR numbersign
ENCODING 35
SWIDTH 600 0
DWIDTH 8 0
BBX 6 9 1 0
BITMAP
28
28
28
FC
50
FC
50
50
50
ENDCHAR

STARTCHAR dollar
ENCODING 36
SWIDTH 620 0
DWIDTH 8 0
BBX 8 12 1 -2
BITMAP
08
1D
2B
49
48
3C
12
92
D4
B8
10
10
ENDCHAR

STARTCHAR percent
ENCODING 37
SWIDTH 800 0
DWIDTH 10 0
BBX 10 9 0 0
BITMAP
3080
4900
8A00
9400
6580
0A40
1440
2480
4300
ENDCHAR

STARTCHAR ampersand
ENCODING 38
SWIDTH 820 0
DWIDTH 11 0
BBX 9 9 1 0
BITMAP
1800
2400
2C00
3380
4900
8600
8480
CC80
7300
ENDCHAR

STARTCHAR quoteright
ENCODING 39
SWIDTH 280 0
DWIDTH 4 0
BBX 3 4 1 5
BITMAP
20
20
40
80
ENDCHAR

STARTCHAR parenleft
ENCODING 40
SWIDTH 280 0
DWIDTH 4 0
BBX 4 12 0 -3
BITMAP
10
20
20
40
40
40
80
80
80
80
40
40
ENDCHAR

STARTCHAR parenright
ENCODING 41
SWIDTH 280 0
DWIDTH 4 0
BBX 4 12 0 -3
BITMAP
20
20
10
10
10
10
20
20
20
40
40
80
ENDCHAR

STARTCHAR asterisk
ENCODING 42
SWIDTH 440 0
DWIDTH 6 0
BBX 5 5 1 4
BITMAP
20
A0
78
60
90
ENDCHAR

STARTCHAR plus
ENCODING 43
SWIDTH 600 0
DWIDTH 8 0
BBX 7 7 1 1
BITMAP
10
10
10
FE
10
10
10
ENDCHAR

STARTCHAR comma
ENCODING 44
SWIDTH 300 0
DWIDTH 4 0
BBX 3 4 1 -2
BITMAP
20
20
40
80
ENDCHAR

STARTCHAR minus
ENCODING 45
SWIDTH 600 0
DWIDTH 8 0
BBX 6 1 1 4
BITMAP
FC
ENDCHAR

STARTCHAR period
ENCODING 46
SWIDTH 300 0
DWIDTH 4 0
BBX 1 2 2 0
BITMAP
80
80
ENDCHAR

STARTCHAR slash
ENCODING 47
SWIDTH 600 0
DWIDTH 8 0
BBX 7 12 1 -3
BITMAP
02
02
04
08
08
10
10
20
40
40
80
80
ENDCHAR

STARTCHAR zero
ENCODING 48
SWIDTH 620 0
DWIDTH 8 0
BBX 7 9 1 0
BITMAP
1C
22
42
82
82
82
84
88
70
ENDCHAR

STARTCHAR one
ENCODING 49
SWIDTH 620 0
DWIDTH 8 0
BBX 4 9 2 0
BITMAP
10
70
20
20
20
40
40
40
E0
ENDCHAR

STARTCHAR two
ENCODING 50
SWIDTH 620 0
DWIDTH 8 0
BBX 7 9 1 0
BITMAP
1C
22
42
42
04
08
30
44
FC
ENDCHAR

STARTCHAR three
ENCODING 51
SWIDTH 620 0
DWIDTH 8 0
BBX 8 9 0 0
BITMAP
0E
11
21
02
0C
02
82
44
38
ENDCHAR

STARTCHAR four
ENCODING 52
SWIDTH 620 0
DWIDTH 8 0
BBX 7 9 1 0
BITMAP
02
0E
14
24
44
FE
08
08
08
ENDCHAR

STARTCHAR five
ENCODING 53
SWIDTH 620 0
DWIDTH 8 0
BBX 8 9 0 0
BITMAP
1F
20
20
3C
02
02
82
44
38
ENDCHAR

STARTCHAR six
ENCODING 54
SWIDTH 620 0
DWIDTH 8 0
BBX 7 9 1 0
BITMAP
1E
20
40
B8
C4
84
84
88
70
ENDCHAR

STARTCHAR seven
ENCODING 55
SWIDTH 620 0
DWIDTH 8 0
BBX 8 9 1 0
BITMAP
7F
82
04
08
10
20
20
40
40
ENDCHAR

STARTCHAR eight
ENCODING 56
SWIDTH 620 0
DWIDTH 8 0
BBX 7 9 1 0
BITMAP
3C
42
42
42
7C
84
84
84
78
ENDCHAR

STARTCHAR nine
ENCODING 57
SWIDTH 620 0
DWIDTH 8 0
BBX 7 9 1 0
BITMAP
1C
22
42
42
46
3A
04
08
F0
ENDCHAR

STARTCHAR colon
ENCODING 58
SWIDTH 300 0
DWIDTH 4 0
BBX 2 6 1 0
BITMAP
40
40
00
00
80
80
ENDCHAR

STARTCHAR semicolon
ENCODING 59
SWIDTH 300 0
DWIDTH 4 0
BBX 4 8 0 -2
BITMAP
10
10
00
00
20
20
40
80
ENDCHAR

STARTCHAR less
ENCODING 60
SWIDTH 600 0
DWIDTH 8 0
BBX 6 6 1 1
BITMAP
04
18
E0
60
18
04
ENDCHAR

STARTCHAR equal
ENCODING 61
SWIDTH 600 0
DWIDTH 8 0
BBX 6 3 1 3
BITMAP
FC
00
FC
ENDCHAR

STARTCHAR greater
ENCODING 62
SWIDTH 600 0
DWIDTH 8 0
BBX 6 6 1 1
BITMAP
80
60
18
1C
60
80
ENDCHAR

STARTCHAR question
ENCODING 63
SWIDTH 540 0
DWIDTH 7 0
BBX 5 9 1 0
BITMAP
70
C8
08
08
70
80
00
80
80
ENDCHAR

STARTCHAR at
ENCODING 64
SWIDTH 780 0
DWIDTH 11 0
BBX 11 12 0 -3
BITMAP
0F80
1040
2020
4720
4920
8920
9220
96C0
5B20
4040
31C0
0E00
ENDCHAR

STARTCHAR A
ENCODING 65
SWIDTH 700 0
DWIDTH 9 0
BBX 9 9 0 0
BITMAP
0200
0600
0600
0A00
1100
1F00
2100
4100
E380
ENDCHAR

STARTCHAR B
ENCODING 66
SWIDTH 720 0
DWIDTH 9 0
BBX 9 9 0 0
BITMAP
3F00
1080
1080
2180
3E00
2100
4100
4100
FE00
ENDCHAR

STARTCHAR C
ENCODING 67
SWIDTH 720 0
DWIDTH 9 0
BBX 8 9 1 0
BITMAP
1D
23
41
80
80
80
81
42
3C
ENDCHAR

STARTCHAR D
ENCODING 68
SWIDTH 740 0
DWIDTH 10 0
BBX 10 9 0 0
BITMAP
3F00
1080
1040
2040
2040
2040
4080
4100
FE00
ENDCHAR

STARTCHAR E
ENCODING 69
SWIDTH 680 0
DWIDTH 9 0
BBX 9 9 0 0
BITMAP
3F00
1080
1080
2400
3C00
2400
4100
4100
FE00
ENDCHAR

STARTCHAR F
ENCODING 70
SWIDTH 620 0
DWIDTH 8 0
BBX 9 9 0 0
BITMAP
3F00
1080
1080
2400
3C00
2400
4000
4000
E000
ENDCHAR

STARTCHAR G
ENCODING 71
SWIDTH 760 0
DWIDTH 10 0
BBX 9 9 1 0
BITMAP
1D00
2300
4100
8000
8380
8100
8100
4600
3A00
ENDCHAR

STARTCHAR H
ENCODING 72
SWIDTH 800 0
DWIDTH 10 0
BBX 11 9 0 0
BITMAP
38E0
1040
1040
2080
3F80
2080
4100
4100
E380
ENDCHAR

STARTCHAR I
ENCODING 73
SWIDTH 320 0
DWIDTH 4 0
BBX 5 9 0 0
BITMAP
38
10
10
20
20
20
40
40
E0
ENDCHAR

STARTCHAR J
ENCODING 74
SWIDTH 560 0
DWIDTH 7 0
BBX 8 9 0 0
BITMAP
07
02
02
04
04
04
88
88
70
ENDCHAR

STARTCHAR K
ENCODING 75
SWIDTH 720 0
DWIDTH 9 0
BBX 9 9 0 0
BITMAP
3B80
1100
1600
2800
3800
2400
4400
4200
E700
ENDCHAR

STARTCHAR L
ENCODING 76
SWIDTH 580 0
DWIDTH 8 0
BBX 8 9 0 0
BITMAP
38
10
10
20
20
20
41
43
FE
ENDCHAR

STARTCHAR M
ENCODING 77
SWIDTH 860 0
DWIDTH 11 0
BBX 12 9 0 0
BITMAP
3030
1060
10A0
2940
2A40
2A40
4C80
4880
E9C0
ENDCHAR

STARTCHAR N
ENCODING 78
SWIDTH 720 0
DWIDTH 9 0
BBX 10 9 0 0
BITMAP
31C0
1080
1880
2900
2500
2500
4600
4200
E200
ENDCHAR

STARTCHAR O
ENCODING 79
SWIDTH 760 0
DWIDTH 10 0
BBX 9 9 1 0
BITMAP
1E00
2100
4080
8080
8080
8080
8100
4200
3C00
ENDCHAR

STARTCHAR P
ENCODING 80
SWIDTH 600 0
DWIDTH 8 0
BBX 8 9 0 0
BITMAP
3E
11
11
22
3C
20
40
40
E0
ENDCHAR

STARTCHAR Q
ENCODING 81
SWIDTH 780 0
DWIDTH 10 0
BBX 9 12 1 -3
BITMAP
1E00
2100
4080
8080
8080
8080
8100
4200
3C00
1000
1800
0E00
ENDCHAR

STARTCHAR R
ENCODING 82
SWIDTH 700 0
DWIDTH 9 0
BBX 9 9 0 0
BITMAP
3F00
1080
1080
2080
3F00
2400
4400
4200
E300
ENDCHAR

STARTCHAR S
ENCODING 83
SWIDTH 640 0
DWIDTH 8 0
BBX 8 9 1 0
BITMAP
1D
23
41
40
3C
02
82
C4
B8
ENDCHAR

STARTCHAR T
ENCODING 84
SWIDTH 600 0
DWIDTH 8 0
BBX 9 9 1 0
BITMAP
7F00
4900
8880
1000
1000
1000
2000
2000
7000
ENDCHAR

STARTCHAR U
ENCODING 85
SWIDTH 720 0
DWIDTH 9 0
BBX 9 9 1 0
BITMAP
7380
2100
2100
4200
4200
4200
8400
8400
7800
ENDCHAR

STARTCHAR V
ENCODING 86
SWIDTH 680 0
DWIDTH 9 0
BBX 8 9 2 0
BITMAP
E7
42
42
44
64
28
28
30
20
ENDCHAR

STARTCHAR W
ENCODING 87
SWIDTH 960 0
DWIDTH 12 0
BBX 12 9 1 0
BITMAP
EE70
4420
4420
4640
6A40
2A80
3280
2300
2200
ENDCHAR

STARTCHAR X
ENCODING 88
SWIDTH 700 0
DWIDTH 9 0
BBX 9 9 0 0
BITMAP
7380
2100
1200
0C00
0800
1400
2400
4200
E700
ENDCHAR

STARTCHAR Y
ENCODING 89
SWIDTH 660 0
DWIDTH 9 0
BBX 8 9 2 0
BITMAP
E7
42
44
28
28
10
20
20
70
ENDCHAR

STARTCHAR Z
ENCODING 90
SWIDTH 580 0
DWIDTH 8 0
BBX 9 9 0 0
BITMAP
1F80
2100
2200
0400
0800
1000
2100
4100
FE00
ENDCHAR

STARTCHAR bracketleft
ENCODING 91
SWIDTH 260 0
DWIDTH 3 0
BBX 4 12 0 -3
BITMAP
30
20
20
20
40
40
40
40
80
80
80
C0
ENDCHAR

STARTCHAR backslash
ENCODING 92
SWIDTH 600 0
DWIDTH 8 0
BBX 7 12 1 -3
BITMAP
80
80
40
40
20
10
10
08
08
04
02
02
ENDCHAR

STARTCHAR bracketright
ENCODING 93
SWIDTH 260 0
DWIDTH 3 0
BBX 4 12 0 -3
BITMAP
30
10
10
10
20
20
20
20
40
40
40
C0
ENDCHAR

STARTCHAR asciicircum
ENCODING 94
SWIDTH 600 0
DWIDTH 8 0
BBX 6 5 1 4
BITMAP
30
30
48
84
84
ENDCHAR

STARTCHAR underscore
ENCODING 95
SWIDTH 500 0
DWIDTH 7 0
BBX 7 1 0 -2
BITMAP
FE
ENDCHAR

STARTCHAR quoteleft
ENCODING 96
SWIDTH 280 0
DWIDTH 4 0
BBX 3 4 1 5
BITMAP
20
40
80
80
ENDCHAR

STARTCHAR a
ENCODING 97
SWIDTH 620 0
DWIDTH 8 0
BBX 7 6 1 0
BITMAP
3C
44
84
88
9A
6C
ENDCHAR

STARTCHAR b
ENCODING 98
SWIDTH 600 0
DWIDTH 8 0
BBX 7 9 1 0
BITMAP
20
60
20
5C
62
42
82
C4
B8
ENDCHAR

STARTCHAR c
ENCODING 99
SWIDTH 480 0
DWIDTH 6 0
BBX 5 6 1 0
BITMAP
38
48
80
80
88
70
ENDCHAR

STARTCHAR d
ENCODING 100
SWIDTH 640 0
DWIDTH 8 0
BBX 8 9 1 0
BITMAP
01
03
01
3A
46
82
84
8C
76
ENDCHAR

STARTCHAR e
ENCODING 101
SWIDTH 540 0
DWIDTH 7 0
BBX 6 6 1 0
BITMAP
38
44
F8
80
84
78
ENDCHAR

STARTCHAR f
ENCODING 102
SWIDTH 340 0
DWIDTH 4 0
BBX 8 12 -1 -3
BITMAP
07
09
08
1C
08
10
10
10
10
20
A0
C0
ENDCHAR

STARTCHAR g
ENCODING 103
SWIDTH 560 0
DWIDTH 7 0
BBX 8 9 0 -3
BITMAP
1D
22
42
46
4A
34
04
88
70
ENDCHAR

STARTCHAR h
ENCODING 104
SWIDTH 620 0
DWIDTH 8 0
BBX 7 9 1 0
BITMAP
20
60
20
58
64
44
48
8A
8C
ENDCHAR

STARTCHAR i
ENCODING 105
SWIDTH 280 0
DWIDTH 4 0
BBX 3 9 1 0
BITMAP
20
00
00
40
C0
40
80
A0
C0
ENDCHAR

STARTCHAR j
ENCODING 106
SWIDTH 280 0
DWIDTH 4 0
BBX 6 12 -2 -3
BITMAP
04
00
00
04
0C
04
08
08
08
10
D0
60
ENDCHAR

STARTCHAR k
ENCODING 107
SWIDTH 600 0
DWIDTH 8 0
BBX 7 9 1 0
BITMAP
20
60
20
4C
50
60
50
92
8C
ENDCHAR

STARTCHAR l
ENCODING 108
SWIDTH 280 0
DWIDTH 4 0
BBX 3 9 1 0
BITMAP
20
60
20
40
40
40
80
A0
C0
ENDCHAR

STARTCHAR m
ENCODING 109
SWIDTH 880 0
DWIDTH 11 0
BBX 10 6 1 0
BITMAP
5D80
E640
4440
4480
8880
88C0
ENDCHAR

STARTCHAR n
ENCODING 110
SWIDTH 620 0
DWIDTH 8 0
BBX 7 6 1 0
BITMAP
58
E4
44
48
8A
8C
ENDCHAR

STARTCHAR o
ENCODING 111
SWIDTH 540 0
DWIDTH 7 0
BBX 6 6 1 0
BITMAP
38
44
84
84
88
70
ENDCHAR

STARTCHAR p
ENCODING 112
SWIDTH 600 0
DWIDTH 8 0
BBX 9 9 -1 -3
BITMAP
1700
3880
1080
2080
3100
2E00
4000
4000
E000
ENDCHAR

STARTCHAR q
ENCODING 113
SWIDTH 560 0
DWIDTH 8 0
BBX 7 9 1 -3
BITMAP
3A
46
82
84
8C
74
08
08
1C
ENDCHAR

STARTCHAR r
ENCODING 114
SWIDTH 400 0
DWIDTH 5 0
BBX 5 6 1 0
BITMAP
58
E0
40
40
80
80
ENDCHAR

STARTCHAR s
ENCODING 115
SWIDTH 540 0
DWIDTH 7 0
BBX 6 6 1 0
BITMAP
3C
44
30
0C
C4
78
ENDCHAR

STARTCHAR t
ENCODING 116
SWIDTH 340 0
DWIDTH 4 0
BBX 4 8 1 0
BITMAP
40
40
F0
40
40
80
A0
C0
ENDCHAR

STARTCHAR u
ENCODING 117
SWIDTH 620 0
DWIDTH 8 0
BBX 7 6 1 0
BITMAP
44
C4
4C
88
9A
6C
ENDCHAR

STARTCHAR v
ENCODING 118
SWIDTH 540 0
DWIDTH 7 0
BBX 6 6 1 0
BITMAP
48
C4
44
88
90
E0
ENDCHAR

STARTCHAR w
ENCODING 119
SWIDTH 880 0
DWIDTH 10 0
BBX 9 6 1 0
BITMAP
4480
C480
4880
8900
9100
6E00
ENDCHAR

STARTCHAR x
ENCODING 120
SWIDTH 540 0
DWIDTH 7 0
BBX 8 6 0 0
BITMAP
13
34
08
18
29
C6
ENDCHAR

STARTCHAR y
ENCODING 121
SWIDTH 600 0
DWIDTH 7 0
BBX 7 9 0 -3
BITMAP
22
62
24
44
4C
34
08
88
70
ENDCHAR

STARTCHAR z
ENCODING 122
SWIDTH 520 0
DWIDTH 7 0
BBX 7 6 0 0
BITMAP
3A
44
08
10
32
DC
ENDCHAR

STARTCHAR braceleft
ENCODING 123
SWIDTH 360 0
DWIDTH 5 0
BBX 4 12 1 -3
BITMAP
10
20
20
40
40
80
80
80
40
40
40
20
ENDCHAR

STARTCHAR bar
ENCODING 124
SWIDTH 600 0
DWIDTH 8 0
BBX 1 12 4 -3
BITMAP
80
80
80
80
80
80
80
80
80
80
80
80
ENDCHAR

STARTCHAR braceright
ENCODING 125
SWIDTH 380 0
DWIDTH 5 0
BBX 4 12 1 -3
BITMAP
40
20
20
20
10
10
10
20
20
40
40
80
ENDCHAR

STARTCHAR asciitilde
ENCODING 126
SWIDTH 600 0
DWIDTH 8 0
BBX 4 2 2 3
BITMAP
D0
B0
ENDCHAR

STARTCHAR space
ENCODING 160
SWIDTH 300 0
DWIDTH 5 0
BBX 0 0 0 0
BITMAP
ENDCHAR

STARTCHAR Aogonek
ENCODING 161
SWIDTH 700 0
DWIDTH 9 0
BBX 9 11 0 -2
BITMAP
0200
0600
0600
0A00
1100
1F00
2100
4100
E380
0100
0180
ENDCHAR

STARTCHAR breve
ENCODING 162
SWIDTH 440 0
DWIDTH 6 0
BBX 4 2 1 7
BITMAP
90
60
ENDCHAR

STARTCHAR Lslash
ENCODING 163
SWIDTH 580 0
DWIDTH 8 0
BBX 8 9 0 0
BITMAP
38
14
18
30
60
A0
41
43
FE
ENDCHAR

STARTCHAR currency
ENCODING 164
SWIDTH 600 0
DWIDTH 8 0
BBX 6 6 1 2
BITMAP
B4
48
84
84
48
B4
ENDCHAR

STARTCHAR Lcaron
ENCODING 165
SWIDTH 580 0
DWIDTH 8 0
BBX 8 9 0 0
BITMAP
3A
12
14
20
20
20
41
43
FE
ENDCHAR

STARTCHAR Sacute
ENCODING 166
SWIDTH 640 0
DWIDTH 8 0
BBX 8 12 1 0
BITMAP
04
08
00
1D
23
41
40
3C
02
82
C4
B8
ENDCHAR

STARTCHAR section
ENCODING 167
SWIDTH 620 0
DWIDTH 8 0
BBX 7 12 1 -3
BITMAP
1C
26
22
38
44
42
42
22
12
8C
C8
70
ENDCHAR

STARTCHAR dieresis
ENCODING 168
SWIDTH 420 0
DWIDTH 5 0
BBX 3 2 1 7
BITMAP
A0
A0
ENDCHAR

STARTCHAR Scaron
ENCODING 169
SWIDTH 640 0
DWIDTH 8 0
BBX 8 12 1 0
BITMAP
14
08
00
1D
23
41
40
3C
02
82
C4
B8
ENDCHAR

STARTCHAR Scommaaccent
ENCODING 170
SWIDTH 640 0
DWIDTH 8 0
BBX 8 12 1 -3
BITMAP
1D
23
41
40
3C
02
82
C4
B8
00
10
20
ENDCHAR

STARTCHAR Tcaron
ENCODING 171
SWIDTH 600 0
DWIDTH 8 0
BBX 9 12 1 0
BITMAP
1400
0800
0000
7F00
4900
8880
1000
1000
1000
2000
2000
7000
ENDCHAR

STARTCHAR Zacute
ENCODING 172
SWIDTH 580 0
DWIDTH 8 0
BBX 9 12 0 0
BITMAP
0200
0400
0000
1F80
2100
2200
0400
0800
1000
2100
4100
FE00
ENDCHAR

STARTCHAR hyphen
ENCODING 173
SWIDTH 320 0
DWIDTH 4 0
BBX 4 1 0 3
BITMAP
F0
ENDCHAR

STARTCHAR Zcaron
ENCODING 174
SWIDTH 580 0
DWIDTH 8 0
BBX 9 12 0 0
BITMAP
0A00
0400
0000
1F80
2100
2200
0400
0800
1000
2100
4100
FE00
ENDCHAR

STARTCHAR Zdotaccent
ENCODING 175
SWIDTH 580 0
DWIDTH 8 0
BBX 9 12 0 0
BITMAP
0400
0400
0000
1F80
2100
2200
0400
0800
1000
2100
4100
FE00
ENDCHAR

STARTCHAR degree
ENCODING 176
SWIDTH 400 0
DWIDTH 5 0
BBX 4 4 1 5
BITMAP
60
90
90
60
ENDCHAR

STARTCHAR aogonek
ENCODING 177
SWIDTH 620 0
DWIDTH 8 0
BBX 7 8 1 -2
BITMAP
3C
44
84
88
9A
6C
08
0C
ENDCHAR

STARTCHAR ogonek
ENCODING 178
SWIDTH 260 0
DWIDTH 3 0
BBX 2 2 1 -2
BITMAP
80
C0
ENDCHAR

STARTCHAR lslash
ENCODING 179
SWIDTH 340 0
DWIDTH 4 0
BBX 5 9 0 0
BITMAP
10
30
10
28
30
60
C0
50
60
ENDCHAR

STARTCHAR acute
ENCODING 180
SWIDTH 320 0
DWIDTH 4 0
BBX 2 2 1 7
BITMAP
40
80
ENDCHAR

STARTCHAR lcaron
ENCODING 181
SWIDTH 374 0
DWIDTH 4 0
BBX 5 9 1 0
BITMAP
28
68
30
40
40
40
80
A0
C0
ENDCHAR

STARTCHAR sacute
ENCODING 182
SWIDTH 540 0
DWIDTH 7 0
BBX 6 9 1 0
BITMAP
08
10
00
3C
44
30
0C
C4
78
ENDCHAR

STARTCHAR caron
ENCODING 183
SWIDTH 440 0
DWIDTH 6 0
BBX 3 2 2 7
BITMAP
A0
40
ENDCHAR

STARTCHAR commaaccent
ENCODING 184
SWIDTH 333 0
DWIDTH 4 0
BBX 2 2 1 -3
BITMAP
40
80
ENDCHAR

STARTCHAR scaron
ENCODING 185
SWIDTH 540 0
DWIDTH 7 0
BBX 6 9 1 0
BITMAP
14
08
00
3C
44
30
0C
C4
78
ENDCHAR

STARTCHAR scommaaccent
ENCODING 186
SWIDTH 540 0
DWIDTH 7 0
BBX 6 9 1 -3
BITMAP
3C
44
30
0C
C4
78
00
20
40
ENDCHAR

STARTCHAR tcaron
ENCODING 187
SWIDTH 358 0
DWIDTH 4 0
BBX 4 9 1 0
BITMAP
10
50
60
F0
40
40
80
A0
C0
ENDCHAR

STARTCHAR zacute
ENCODING 188
SWIDTH 520 0
DWIDTH 7 0
BBX 7 9 0 0
BITMAP
04
08
00
3A
44
08
10
32
DC
ENDCHAR

STARTCHAR hungarumlaut
ENCODING 189
SWIDTH 340 0
DWIDTH 4 0
BBX 4 2 0 7
BITMAP
50
A0
ENDCHAR

STARTCHAR zcaron
ENCODING 190
SWIDTH 520 0
DWIDTH 7 0
BBX 7 9 0 0
BITMAP
14
08
00
3A
44
08
10
32
DC
ENDCHAR

STARTCHAR zdotaccent
ENCODING 191
SWIDTH 520 0
DWIDTH 7 0
BBX 7 9 0 0
BITMAP
08
08
00
3A
44
08
10
32
DC
ENDCHAR

STARTCHAR Racute
ENCODING 192
SWIDTH 700 0
DWIDTH 9 0
BBX 9 12 0 0
BITMAP
0200
0400
0000
3F00
1080
1080
2080
3F00
2400
4400
4200
E300
ENDCHAR

STARTCHAR Aacute
ENCODING 193
SWIDTH 700 0
DWIDTH 9 0
BBX 9 12 0 0
BITMAP
0100
0200
0000
0200
0600
0600
0A00
1100
1F00
2100
4100
E380
ENDCHAR

STARTCHAR Acircumflex
ENCODING 194
SWIDTH 700 0
DWIDTH 9 0
BBX 9 12 0 0
BITMAP
0200
0500
0000
0200
0600
0600
0A00
1100
1F00
2100
4100
E380
ENDCHAR

STARTCHAR Abreve
ENCODING 195
SWIDTH 700 0
DWIDTH 9 0
BBX 9 12 0 0
BITMAP
0480
0300
0000
0200
0600
0600
0A00
1100
1F00
2100
4100
E380
ENDCHAR

STARTCHAR Adieresis
ENCODING 196
SWIDTH 700 0
DWIDTH 9 0
BBX 9 12 0 0
BITMAP
0500
0500
0000
0200
0600
0600
0A00
1100
1F00
2100
4100
E380
ENDCHAR

STARTCHAR Lacute
ENCODING 197
SWIDTH 580 0
DWIDTH 8 0
BBX 8 12 0 0
BITMAP
08
10
00
38
10
10
20
20
20
41
43
FE
ENDCHAR

STARTCHAR Cacute
ENCODING 198
SWIDTH 720 0
DWIDTH 9 0
BBX 8 12 1 0
BITMAP
04
08
00
1D
23
41
80
80
80
81
42
3C
ENDCHAR

STARTCHAR Ccedilla
ENCODING 199
SWIDTH 720 0
DWIDTH 9 0
BBX 8 12 1 -3
BITMAP
1D
23
41
80
80
80
81
42
3C
10
08
30
ENDCHAR

STARTCHAR Ccaron
ENCODING 200
SWIDTH 720 0
DWIDTH 9 0
BBX 8 12 1 0
BITMAP
14
08
00
1D
23
41
80
80
80
81
42
3C
ENDCHAR

STARTCHAR Eacute
ENCODING 201
SWIDTH 680 0
DWIDTH 9 0
BBX 9 12 0 0
BITMAP
0200
0400
0000
3F00
1080
1080
2400
3C00
2400
4100
4100
FE00
ENDCHAR

STARTCHAR Eogonek
ENCODING 202
SWIDTH 680 0
DWIDTH 9 0
BBX 9 11 0 -2
BITMAP
3F00
1080
1080
2400
3C00
2400
4100
4100
FE00
0200
0300
ENDCHAR

STARTCHAR Edieresis
ENCODING 203
SWIDTH 680 0
DWIDTH 9 0
BBX 9 12 0 0
BITMAP
0A00
0A00
0000
3F00
1080
1080
2400
3C00
2400
4100
4100
FE00
ENDCHAR

STARTCHAR Ecaron
ENCODING 204
SWIDTH 680 0
DWIDTH 9 0
BBX 9 12 0 0
BITMAP
0A00
0400
0000
3F00
1080
1080
2400
3C00
2400
4100
4100
FE00
ENDCHAR

STARTCHAR Iacute
ENCODING 205
SWIDTH 320 0
DWIDTH 4 0
BBX 5 12 0 0
BITMAP
08
10
00
38
10
10
20
20
20
40
40
E0
ENDCHAR

STARTCHAR Icircumflex
ENCODING 206
SWIDTH 320 0
DWIDTH 4 0
BBX 5 12 0 0
BITMAP
10
28
00
38
10
10
20
20
20
40
40
E0
ENDCHAR

STARTCHAR Dcaron
ENCODING 207
SWIDTH 740 0
DWIDTH 10 0
BBX 10 12 0 0
BITMAP
0A00
0400
0000
3F00
1080
1040
2040
2040
2040
4080
4100
FE00
ENDCHAR

STARTCHAR Dcroat
ENCODING 208
SWIDTH 740 0
DWIDTH 10 0
BBX 10 9 0 0
BITMAP
3F00
1080
1040
2040
7840
2040
4080
4100
FE00
ENDCHAR

STARTCHAR Nacute
ENCODING 209
SWIDTH 720 0
DWIDTH 9 0
BBX 10 12 0 0
BITMAP
0200
0400
0000
31C0
1080
1880
2900
2500
2500
4600
4200
E200
ENDCHAR

STARTCHAR Ncaron
ENCODING 210
SWIDTH 720 0
DWIDTH 9 0
BBX 10 12 0 0
BITMAP
0A00
0400
0000
31C0
1080
1880
2900
2500
2500
4600
4200
E200
ENDCHAR

STARTCHAR Oacute
ENCODING 211
SWIDTH 760 0
DWIDTH 10 0
BBX 9 12 1 0
BITMAP
0200
0400
0000
1E00
2100
4080
8080
8080
8080
8100
4200
3C00
ENDCHAR

STARTCHAR Ocircumflex
ENCODING 212
SWIDTH 760 0
DWIDTH 10 0
BBX 9 12 1 0
BITMAP
0400
0A00
0000
1E00
2100
4080
8080
8080
8080
8100
4200
3C00
ENDCHAR

STARTCHAR Ohungarumlaut
ENCODING 213
SWIDTH 760 0
DWIDTH 10 0
BBX 9 12 1 0
BITMAP
0500
0A00
0000
1E00
2100
4080
8080
8080
8080
8100
4200
3C00
ENDCHAR

STARTCHAR Odieresis
ENCODING 214
SWIDTH 760 0
DWIDTH 10 0
BBX 9 12 1 0
BITMAP
0A00
0A00
0000
1E00
2100
4080
8080
8080
8080
8100
4200
3C00
ENDCHAR

STARTCHAR multiply
ENCODING 215
SWIDTH 600 0
DWIDTH 8 0
BBX 5 5 2 2
BITMAP
88
50
20
50
88
ENDCHAR

STARTCHAR Rcaron
ENCODING 216
SWIDTH 700 0
DWIDTH 9 0
BBX 9 12 0 0
BITMAP
0A00
0400
0000
3F00
1080
1080
2080
3F00
2400
4400
4200
E300
ENDCHAR

STARTCHAR Uring
ENCODING 217
SWIDTH 720 0
DWIDTH 9 0
BBX 9 12 1 0
BITMAP
0400
0A00
0400
7380
2100
2100
4200
4200
4200
8400
8400
7800
ENDCHAR

STARTCHAR Uacute
ENCODING 218
SWIDTH 720 0
DWIDTH 9 0
BBX 9 12 1 0
BITMAP
0400
0800
0000
7380
2100
2100
4200
4200
4200
8400
8400
7800
ENDCHAR

STARTCHAR Uhungarumlaut
ENCODING 219
SWIDTH 720 0
DWIDTH 9 0
BBX 9 12 1 0
BITMAP
0500
0A00
0000
7380
2100
2100
4200
4200
4200
8400
8400
7800
ENDCHAR

STARTCHAR Udieresis
ENCODING 220
SWIDTH 720 0
DWIDTH 9 0
BBX 9 12 1 0
BITMAP
0A00
0A00
0000
7380
2100
2100
4200
4200
4200
8400
8400
7800
ENDCHAR

STARTCHAR Yacute
ENCODING 221
SWIDTH 660 0
DWIDTH 9 0
BBX 8 12 2 0
BITMAP
04
08
00
E7
42
44
28
28
10
20
20
70
ENDCHAR

STARTCHAR Tcommaaccent
ENCODING 222
SWIDTH 600 0
DWIDTH 8 0
BBX 9 12 1 -3
BITMAP
7F00
4900
8880
1000
1000
1000
2000
2000
7000
0000
2000
4000
ENDCHAR

STARTCHAR germandbls
ENCODING 223
SWIDTH 620 0
DWIDTH 8 0
BBX 10 11 -2 -2
BITMAP
0380
0440
0D80
1A00
0B00
0880
1040
1440
1380
2000
C000
ENDCHAR

STARTCHAR racute
ENCODING 224
SWIDTH 400 0
DWIDTH 5 0
BBX 5 9 1 0
BITMAP
10
20
00
58
E0
40
40
80
80
ENDCHAR

STARTCHAR aacute
ENCODING 225
SWIDTH 620 0
DWIDTH 8 0
BBX 7 9 1 0
BITMAP
08
10
00
3C
44
84
88
9A
6C
ENDCHAR

STARTCHAR acircumflex
ENCODING 226
SWIDTH 620 0
DWIDTH 8 0
BBX 7 9 1 0
BITMAP
08
14
00
3C
44
84
88
9A
6C
ENDCHAR

STARTCHAR abreve
ENCODING 227
SWIDTH 620 0
DWIDTH 8 0
BBX 7 9 1 0
BITMAP
24
18
00
3C
44
84
88
9A
6C
ENDCHAR

STARTCHAR adieresis
ENCODING 228
SWIDTH 620 0
DWIDTH 8 0
BBX 7 9 1 0
BITMAP
14
14
00
3C
44
84
88
9A
6C
ENDCHAR

STARTCHAR lacute
ENCODING 229
SWIDTH 280 0
DWIDTH 4 0
BBX 4 12 1 0
BITMAP
10
20
00
20
60
20
40
40
40
80
A0
C0
ENDCHAR

STARTCHAR cacute
ENCODING 230
SWIDTH 480 0
DWIDTH 6 0
BBX 5 9 1 0
BITMAP
08
10
00
38
48
80
80
88
70
ENDCHAR

STARTCHAR ccedilla
ENCODING 231
SWIDTH 480 0
DWIDTH 6 0
BBX 5 9 1 -3
BITMAP
38
48
80
80
88
70
00
20
40
ENDCHAR

STARTCHAR ccaron
ENCODING 232
SWIDTH 480 0
DWIDTH 6 0
BBX 5 9 1 0
BITMAP
28
10
00
38
48
80
80
88
70
ENDCHAR

STARTCHAR eacute
ENCODING 233
SWIDTH 540 0
DWIDTH 7 0
BBX 6 9 1 0
BITMAP
08
10
00
38
44
F8
80
84
78
ENDCHAR

STARTCHAR eogonek
ENCODING 234
SWIDTH 540 0
DWIDTH 7 0
BBX 6 8 1 -2
BITMAP
38
44
F8
80
84
78
20
30
ENDCHAR

STARTCHAR edieresis
ENCODING 235
SWIDTH 540 0
DWIDTH 7 0
BBX 6 9 1 0
BITMAP
28
28
00
38
44
F8
80
84
78
ENDCHAR

STARTCHAR ecaron
ENCODING 236
SWIDTH 540 0
DWIDTH 7 0
BBX 6 9 1 0
BITMAP
28
10
00
38
44
F8
80
84
78
ENDCHAR

STARTCHAR iacute
ENCODING 237
SWIDTH 280 0
DWIDTH 4 0
BBX 3 9 1 0
BITMAP
20
40
00
40
C0
40
80
A0
C0
ENDCHAR

STARTCHAR icircumflex
ENCODING 238
SWIDTH 280 0
DWIDTH 4 0
BBX 3 9 1 0
BITMAP
40
A0
00
40
C0
40
80
A0
C0
ENDCHAR

STARTCHAR dcaron
ENCODING 239
SWIDTH 711 0
DWIDTH 8 0
BBX 10 9 1 0
BITMAP
0140
0340
0180
3A00
4600
8200
8400
8C00
7600
ENDCHAR

STARTCHAR dcroat
ENCODING 240
SWIDTH 640 0
DWIDTH 8 0
BBX 9 9 1 0
BITMAP
0100
0380
0100
3A00
4600
8200
8400
8C00
7600
ENDCHAR

STARTCHAR nacute
ENCODING 241
SWIDTH 620 0
DWIDTH 8 0
BBX 7 9 1 0
BITMAP
08
10
00
58
E4
44
48
8A
8C
ENDCHAR

STARTCHAR ncaron
ENCODING 242
SWIDTH 620 0
DWIDTH 8 0
BBX 7 9 1 0
BITMAP
28
10
00
58
E4
44
48
8A
8C
ENDCHAR

STARTCHAR oacute
ENCODING 243
SWIDTH 540 0
DWIDTH 7 0
BBX 6 9 1 0
BITMAP
08
10
00
38
44
84
84
88
70
ENDCHAR

STARTCHAR ocircumflex
ENCODING 244
SWIDTH 540 0
DWIDTH 7 0
BBX 6 9 1 0
BITMAP
10
28
00
38
44
84
84
88
70
ENDCHAR

STARTCHAR ohungarumlaut
ENCODING 245
SWIDTH 540 0
DWIDTH 7 0
BBX 6 9 1 0
BITMAP
14
28
00
38
44
84
84
88
70
ENDCHAR

STARTCHAR odieresis
ENCODING 246
SWIDTH 540 0
DWIDTH 7 0
BBX 6 9 1 0
BITMAP
28
28
00
38
44
84
84
88
70
ENDCHAR

STARTCHAR divide
ENCODING 247
SWIDTH 600 0
DWIDTH 8 0
BBX 7 5 1 2
BITMAP
10
00
FE
00
10
ENDCHAR

STARTCHAR rcaron
ENCODING 248
SWIDTH 400 0
DWIDTH 5 0
BBX 5 9 1 0
BITMAP
50
20
00
58
E0
40
40
80
80
ENDCHAR

STARTCHAR uring
ENCODING 249
SWIDTH 620 0
DWIDTH 8 0
BBX 7 10 1 0
BITMAP
10
28
10
00
44
C4
4C
88
9A
6C
ENDCHAR

STARTCHAR uacute
ENCODING 250
SWIDTH 620 0
DWIDTH 8 0
BBX 7 9 1 0
BITMAP
08
10
00
44
C4
4C
88
9A
6C
ENDCHAR

STARTCHAR uhungarumlaut
ENCODING 251
SWIDTH 620 0
DWIDTH 8 0
BBX 7 9 1 0
BITMAP
14
28
00
44
C4
4C
88
9A
6C
ENDCHAR

STARTCHAR udieresis
ENCODING 252
SWIDTH 620 0
DWIDTH 8 0
BBX 7 9 1 0
BITMAP
28
28
00
44
C4
4C
88
9A
6C
ENDCHAR

STARTCHAR yacute
ENCODING 253
SWIDTH 600 0
DWIDTH 7 0
BBX 7 12 0 -3
BITMAP
04
08
00
22
62
24
44
4C
34
08
88
70
ENDCHAR

STARTCHAR tcommaaccent
ENCODING 254
SWIDTH 340 0
DWIDTH 4 0
BBX 5 11 0 -3
BITMAP
20
20
78
20
20
40
50
60
00
40
80
ENDCHAR

STARTCHAR dotaccent
ENCODING 255
SWIDTH 260 0
DWIDTH 3 0
BBX 1 2 1 7
BITMAP
80
80
ENDCHAR
ENDFONT
